<?xml version="1.0" encoding="UTF-8"?>
<svg version="1.1" xmlns="http://www.w3.org/2000/svg" width="256" height="256">
<path d="M0 0 C84.48 0 168.96 0 256 0 C256 84.48 256 168.96 256 256 C171.52 256 87.04 256 0 256 C0 171.52 0 87.04 0 0 Z " fill="#00040C" transform="translate(0,0)"/>
<path d="M0 0 C2.632373 2.13096862 3.47016396 2.83300747 3.86328125 6.11328125 C3.88777344 6.88027344 3.91226563 7.64726563 3.9375 8.4375 C3.99357422 9.57638672 3.99357422 9.57638672 4.05078125 10.73828125 C3.4332054 14.20010553 2.14410106 15.68187183 -0.375 18.125 C-2.96882706 19.2532439 -5.38368984 20.16127804 -8.0625 21 C-14.85993247 23.34270023 -20.15878194 26.04281752 -25.375 31.125 C-25.94605469 31.68058594 -26.51710937 32.23617187 -27.10546875 32.80859375 C-31.63948371 37.65607147 -35.07828349 43.49022272 -35.625 50.1875 C-35.5425 50.826875 -35.46 51.46625 -35.375 52.125 C-34.055 52.125 -32.735 52.125 -31.375 52.125 C-31.0346875 51.3515625 -30.694375 50.578125 -30.34375 49.78125 C-25.2131222 38.75585834 -19.43759898 32.38616471 -8.36328125 27.1796875 C-4.10749028 25.67764363 -0.84126863 25.67837314 3.625 26.125 C4.0271875 25.196875 4.0271875 25.196875 4.4375 24.25 C5.625 22.125 5.625 22.125 8.625 20.125 C12.09014593 19.38593041 15.1648091 19.3461957 18.625 20.125 C21.66179404 22.34089388 23.87089565 24.79684837 25.625 28.125 C25.8046875 30.89453125 25.8046875 30.89453125 25.625 33.125 C26.18445313 33.23328125 26.74390625 33.3415625 27.3203125 33.453125 C30.01823472 34.23963792 32.0955588 35.42184862 34.5 36.875 C35.32242188 37.36484375 36.14484375 37.8546875 36.9921875 38.359375 C49.76040267 46.92203562 57.82108622 59.71325867 62.625 74.125 C63.68034616 84.70861436 63.68034616 84.70861436 60.25 89.3125 C56.09636549 92.18048574 53.73244838 92.63574484 48.625 92.125 C43.45012057 88.64014448 41.85717602 86.15869849 40.25 80 C36.49610094 67.28061387 29.1299122 59.33912327 17.57421875 53 C14.95279971 51.74261699 13.10048817 51.06403998 10.1875 51.4375 C9.4140625 51.7778125 9.4140625 51.7778125 8.625 52.125 C8.77659408 54.06623243 8.77659408 54.06623243 9.625 56.125 C11.66034869 57.4544167 11.66034869 57.4544167 14.1875 58.4375 C23.29730298 62.7060934 29.78401061 68.97311802 33.5234375 78.38671875 C34.71202246 81.85244419 35.67359705 85.3193882 36.5625 88.875 C37.41005635 92.20515671 37.41005635 92.20515671 39.75 94.5 C42.11769898 97.81477858 42.21482007 99.98374235 41.99609375 103.98046875 C41.39923386 107.42969062 40.28333475 108.85568985 37.625 111.125 C36.15695131 111.73577399 34.67629631 112.31670138 33.1875 112.875 C28.40152476 114.8144148 26.98030379 117.21135949 24.7890625 121.7578125 C17.78493546 136.0011044 3.12795793 145.04086251 -11.375 150.125 C-15.47306266 151.08283121 -19.15785174 151.50153109 -23.375 151.125 C-26.78418784 149.00372756 -29.15769305 146.99824937 -30.375 143.125 C-30.8125 139.6875 -30.8125 139.6875 -30.375 136.125 C-26.76344505 131.7325683 -23.23132202 129.23227974 -17.75 127.875 C-12.17224707 126.27088711 -7.99440368 123.56654776 -3.375 120.125 C-2.488125 119.526875 -1.60125 118.92875 -0.6875 118.3125 C4.21987863 113.67038508 8.08616717 107.74198117 9.625 101.125 C9.625 99.805 9.625 98.485 9.625 97.125 C7.19227908 97.26986949 7.19227908 97.26986949 4.625 98.125 C3.18479066 100.13996012 3.18479066 100.13996012 2.25 102.6875 C-2.20811207 112.33298321 -8.45885911 118.1426141 -18.375 122.125 C-21.2638716 122.76946941 -24.12392976 123.223944 -27.0546875 123.62890625 C-30.12498915 124.28535122 -31.52795128 125.63549956 -33.375 128.125 C-36.86009101 129.8675455 -40.57234907 129.69836331 -44.375 129.125 C-47.88592615 126.60629211 -49.14003126 124.8713713 -50.4375 120.75 C-52.28702568 115.83919044 -56.93328946 114.23920357 -61.30859375 111.859375 C-74.03510034 104.66119802 -83.65716045 90.17937625 -88.25390625 76.51171875 C-88.76765701 74.37408448 -89.1314315 72.30825948 -89.375 70.125 C-89.49875 69.0525 -89.6225 67.98 -89.75 66.875 C-89.25855567 63.27107493 -87.88346711 61.7051376 -85.375 59.125 C-81.62043433 56.62195622 -79.82754066 56.67219926 -75.375 57.125 C-71.2957518 59.13032253 -69.17060792 60.92045672 -67.5390625 65.1015625 C-67.01274972 66.64657736 -66.500247 68.19634978 -66 69.75 C-61.7201785 81.72369451 -55.55234462 89.70668792 -44.375 96.125 C-40.87235921 97.72179213 -39.05956304 98.48965298 -35.375 97.125 C-35.24059222 94.69580135 -35.24059222 94.69580135 -36.375 92.125 C-38.25363438 91.42051211 -40.13862244 90.7287277 -42.05078125 90.12109375 C-48.7611186 87.24523488 -55.01819177 80.58850133 -58.375 74.125 C-60.46125169 68.82913033 -61.82822853 63.86589466 -61.375 58.125 C-62.86 57.63 -62.86 57.63 -64.375 57.125 C-67.20853195 53.66179428 -67.90806969 50.59494591 -67.73046875 46.12109375 C-66.99910466 42.01420309 -64.78379105 39.1247872 -61.4375 36.75 C-59.00004469 36.01137718 -56.90793079 35.98428162 -54.375 36.125 C-54.27316406 35.40957031 -54.17132813 34.69414063 -54.06640625 33.95703125 C-51.9346336 25.22519412 -44.95772343 17.91369843 -38.375 12.125 C-37.79492188 11.60421875 -37.21484375 11.0834375 -36.6171875 10.546875 C-27.72431324 3.23238968 -11.08761437 -6.15978576 0 0 Z " fill="#01050D" transform="translate(135.375,55.875)"/>
<path d="M0 0 C4.0792482 2.00532253 6.20439208 3.79545672 7.8359375 7.9765625 C8.36225028 9.52157736 8.874753 11.07134978 9.375 12.625 C13.6548215 24.59869451 19.82265538 32.58168792 31 39 C32.65264551 39.70070326 34.31618493 40.37791557 36 41 C35.42655063 43.86724686 35.1385485 44.8614515 33 47 C34.03125 47.2475 35.0625 47.495 36.125 47.75 C39.07181882 48.56067104 40.41661633 49.30378274 43 51.1875 C45.90637607 53.30693265 45.90637607 53.30693265 49.4375 52.9375 C56.69078443 51.02874094 60.61884823 48.97429787 65 43 C64.34 42.67 63.68 42.34 63 42 C63 40.68 63 39.36 63 38 C64.19625 37.5875 65.3925 37.175 66.625 36.75 C71.71354893 34.826061 75.74769255 32.62063317 79.125 28.25 C79.74375 27.5075 80.3625 26.765 81 26 C82.32 26 83.64 26 85 26 C84.67 27.32 84.34 28.64 84 30 C84.85464844 29.98839844 85.70929688 29.97679687 86.58984375 29.96484375 C87.69457031 29.95582031 88.79929687 29.94679687 89.9375 29.9375 C91.03964844 29.92589844 92.14179688 29.91429687 93.27734375 29.90234375 C96 30 96 30 97 31 C96.45144652 26.428721 95.58255197 22.32564205 94 18 C94.78375 17.401875 95.5675 16.80375 96.375 16.1875 C99.14574323 14.08914751 99.14574323 14.08914751 101 11 C105.30373056 13.96286978 106.95380667 16.4109285 108.6875 21.3125 C109.10257812 22.46363281 109.51765625 23.61476562 109.9453125 24.80078125 C110.73518842 27.1967382 111.44765796 29.55681189 112.0625 32 C112.80913067 35.11657873 112.80913067 35.11657873 115.125 37.375 C117.49269898 40.68977858 117.58982007 42.85874235 117.37109375 46.85546875 C116.77423386 50.30469062 115.65833475 51.73068985 113 54 C111.53195131 54.61077399 110.05129631 55.19170138 108.5625 55.75 C103.77652476 57.6894148 102.35530379 60.08635949 100.1640625 64.6328125 C93.15993546 78.8761044 78.50295793 87.91586251 64 93 C59.90193734 93.95783121 56.21714826 94.37653109 52 94 C48.59081216 91.87872756 46.21730695 89.87324937 45 86 C44.5625 82.5625 44.5625 82.5625 45 79 C48.61155495 74.6075683 52.14367798 72.10727974 57.625 70.75 C63.20275293 69.14588711 67.38059632 66.44154776 72 63 C72.886875 62.401875 73.77375 61.80375 74.6875 61.1875 C79.59487863 56.54538508 83.46116717 50.61698117 85 44 C85 42.68 85 41.36 85 40 C82.56727908 40.14486949 82.56727908 40.14486949 80 41 C78.55979066 43.01496012 78.55979066 43.01496012 77.625 45.5625 C73.16688793 55.20798321 66.91614089 61.0176141 57 65 C54.1111284 65.64446941 51.25107024 66.098944 48.3203125 66.50390625 C45.25001085 67.16035122 43.84704872 68.51049956 42 71 C38.51490899 72.7425455 34.80265093 72.57336331 31 72 C27.48907385 69.48129211 26.23496874 67.7463713 24.9375 63.625 C23.08797432 58.71419044 18.44171054 57.11420357 14.06640625 54.734375 C1.33989966 47.53619802 -8.28216045 33.05437625 -12.87890625 19.38671875 C-13.39265701 17.24908448 -13.7564315 15.18325948 -14 13 C-14.12375 11.9275 -14.2475 10.855 -14.375 9.75 C-13.88355567 6.14607493 -12.50846711 4.5801376 -10 2 C-6.24543433 -0.50304378 -4.45254066 -0.45280074 0 0 Z " fill="#1B2537" transform="translate(60,113)"/>
<path d="M0 0 C4.0358148 0.90836315 5.8579243 3.22586763 8.40625 6.34375 C9.78168538 8.95343368 9.8202854 10.67306058 9.5859375 13.58203125 C10.14539063 13.6903125 10.70484375 13.79859375 11.28125 13.91015625 C13.97917222 14.69666917 16.0564963 15.87887987 18.4609375 17.33203125 C19.28335938 17.821875 20.10578125 18.31171875 20.953125 18.81640625 C33.72134017 27.37906687 41.78202372 40.17028992 46.5859375 54.58203125 C47.64128366 65.16564561 47.64128366 65.16564561 44.2109375 69.76953125 C40.05730299 72.63751699 37.69338588 73.09277609 32.5859375 72.58203125 C27.41105807 69.09717573 25.81811352 66.61572974 24.2109375 60.45703125 C20.73393733 48.67586534 14.23248309 40.76172963 3.5859375 34.58203125 C0.94835239 33.14800439 -1.68738396 31.84438243 -4.4140625 30.58203125 C-3.7540625 28.93203125 -3.0940625 27.28203125 -2.4140625 25.58203125 C-4.05375 24.93234375 -4.05375 24.93234375 -5.7265625 24.26953125 C-8.01518828 23.31022703 -9.24897754 22.76775183 -10.9140625 20.89453125 C-12.50726226 19.23514717 -12.50726226 19.23514717 -15.7890625 19.33203125 C-18.77563622 19.53800185 -21.51160587 19.8784054 -24.4140625 20.58203125 C-24.4140625 21.24203125 -24.4140625 21.90203125 -24.4140625 22.58203125 C-25.91015625 24.01953125 -25.91015625 24.01953125 -27.8515625 25.58203125 C-30.56594488 27.72728169 -30.56594488 27.72728169 -32.4140625 30.58203125 C-31.4240625 30.58203125 -30.4340625 30.58203125 -29.4140625 30.58203125 C-29.4140625 31.90203125 -29.4140625 33.22203125 -29.4140625 34.58203125 C-30.99320265 35.11544309 -32.57760637 35.63328888 -34.1640625 36.14453125 C-35.04578125 36.43457031 -35.9275 36.72460938 -36.8359375 37.0234375 C-39.55041859 37.61157507 -40.80529324 37.32191329 -43.4140625 36.58203125 C-44.8990625 37.07703125 -44.8990625 37.07703125 -46.4140625 37.58203125 C-46.4140625 36.92203125 -46.4140625 36.26203125 -46.4140625 35.58203125 C-47.0740625 35.58203125 -47.7340625 35.58203125 -48.4140625 35.58203125 C-43.22050788 22.41098959 -37.5745308 13.82948775 -24.40234375 7.63671875 C-20.14655278 6.13467488 -16.88033113 6.13540439 -12.4140625 6.58203125 C-12.1459375 5.96328125 -11.8778125 5.34453125 -11.6015625 4.70703125 C-8.9383803 -0.05866321 -4.93099994 -0.07953226 0 0 Z " fill="#6583B9" transform="translate(151.4140625,75.41796875)"/>
<path d="M0 0 C4.0792482 2.00532253 6.20439208 3.79545672 7.8359375 7.9765625 C8.36225028 9.52157736 8.874753 11.07134978 9.375 12.625 C13.6548215 24.59869451 19.82265538 32.58168792 31 39 C32.65264551 39.70070326 34.31618493 40.37791557 36 41 C35.42655063 43.86724686 35.1385485 44.8614515 33 47 C34.03125 47.2475 35.0625 47.495 36.125 47.75 C39.07181882 48.56067104 40.41661633 49.30378274 43 51.1875 C46.90889275 53.5491227 48.63014564 53.07329756 53 52 C54.216875 51.62875 55.43375 51.2575 56.6875 50.875 C61.49104859 49.60613811 61.49104859 49.60613811 64 51 C65.125 53.5 65.125 53.5 66 56 C66.66 56.33 67.32 56.66 68 57 C68 57.66 68 58.32 68 59 C61.4534627 63.02669025 55.93858391 65.45123912 48.3203125 66.50390625 C45.25001085 67.16035122 43.84704872 68.51049956 42 71 C38.51490899 72.7425455 34.80265093 72.57336331 31 72 C27.48907385 69.48129211 26.23496874 67.7463713 24.9375 63.625 C23.08797432 58.71419044 18.44171054 57.11420357 14.06640625 54.734375 C1.33989966 47.53619802 -8.28216045 33.05437625 -12.87890625 19.38671875 C-13.39265701 17.24908448 -13.7564315 15.18325948 -14 13 C-14.12375 11.9275 -14.2475 10.855 -14.375 9.75 C-13.88355567 6.14607493 -12.50846711 4.5801376 -10 2 C-6.24543433 -0.50304378 -4.45254066 -0.45280074 0 0 Z " fill="#374869" transform="translate(60,113)"/>
<path d="M0 0 C2.632373 2.13096862 3.47016396 2.83300747 3.86328125 6.11328125 C3.88777344 6.88027344 3.91226563 7.64726563 3.9375 8.4375 C3.99357422 9.57638672 3.99357422 9.57638672 4.05078125 10.73828125 C3.4332054 14.20010553 2.14410106 15.68187183 -0.375 18.125 C-2.96882706 19.2532439 -5.38368984 20.16127804 -8.0625 21 C-14.85993247 23.34270023 -20.15878194 26.04281752 -25.375 31.125 C-25.94605469 31.68058594 -26.51710937 32.23617187 -27.10546875 32.80859375 C-31.07420885 37.05171589 -33.29799382 41.73700161 -35.375 47.125 C-37.355 46.795 -39.335 46.465 -41.375 46.125 C-41.375 47.115 -41.375 48.105 -41.375 49.125 C-42.365 49.62 -42.365 49.62 -43.375 50.125 C-44.39191264 52.11645391 -45.39142648 54.11687074 -46.375 56.125 C-47.035 56.785 -47.695 57.445 -48.375 58.125 C-48.04543845 61.55244008 -47.44136662 64.82936686 -46.6875 68.1875 C-46.30887133 71.74660952 -46.9282676 73.86985211 -48.375 77.125 C-50 79 -50 79 -51.375 80.125 C-54.79093776 78.71150851 -56.34946005 77.19563238 -58.375 74.125 C-60.46941759 68.90188453 -61.82190104 63.7857465 -61.375 58.125 C-62.365 57.795 -63.355 57.465 -64.375 57.125 C-67.20853195 53.66179428 -67.90806969 50.59494591 -67.73046875 46.12109375 C-66.99910466 42.01420309 -64.78379105 39.1247872 -61.4375 36.75 C-59.00004469 36.01137718 -56.90793079 35.98428162 -54.375 36.125 C-54.27316406 35.40957031 -54.17132813 34.69414063 -54.06640625 33.95703125 C-51.9346336 25.22519412 -44.95772343 17.91369843 -38.375 12.125 C-37.79492188 11.60421875 -37.21484375 11.0834375 -36.6171875 10.546875 C-27.72431324 3.23238968 -11.08761437 -6.15978576 0 0 Z " fill="#405377" transform="translate(135.375,55.875)"/>
<path d="M0 0 C1.32 0 2.64 0 4 0 C5.84795111 1.86319824 7.33117826 3.59368991 8.875 5.6875 C9.53036743 6.55640869 9.53036743 6.55640869 10.19897461 7.44287109 C17.45760365 17.39748567 22.55343081 28.48812794 21 41 C18.78436838 43.97361086 17.26080415 45.36959793 14 47 C9.62934368 47.5043065 7.61445573 47.41353104 3.91796875 44.92578125 C0.61866523 42.01323573 -0.30449565 39.06677702 -1.4375 34.8125 C-3.21074632 28.5981708 -5.58668004 24.12647306 -9.83984375 19.1484375 C-11 17 -11 17 -10.28125 14.34765625 C-9.02099994 12.03847854 -7.58633737 10.09396533 -6 8 C-4.96958573 6.01549844 -3.96314063 4.01800895 -3 2 C-2.01 2 -1.02 2 0 2 C0 1.34 0 0.68 0 0 Z " fill="#4A618A" transform="translate(177,101)"/>
<path d="M0 0 C0 0.66 0 1.32 0 2 C0.59554687 2.09539062 1.19109375 2.19078125 1.8046875 2.2890625 C4.47450677 3.15366589 5.37862885 4.20803685 7.125 6.375 C7.62257812 6.98085937 8.12015625 7.58671875 8.6328125 8.2109375 C12.02180457 12.6456757 12.02180457 12.6456757 11.875 15.03125 C10.7173673 17.63592358 9.51751099 18.20627907 7 19.5 C6.19046875 19.91765625 5.3809375 20.3353125 4.546875 20.765625 C-3.33985976 24.58803019 -10.00341166 27.80326682 -19 27 C-22.40918784 24.87872756 -24.78269305 22.87324937 -26 19 C-26.4375 15.5625 -26.4375 15.5625 -26 12 C-21.50123826 6.52853302 -16.99461353 4.59376323 -10.375 2.78125 C-1.64902507 -0.08913649 -1.64902507 -0.08913649 0 0 Z " fill="#6582B8" transform="translate(131,180)"/>
<path d="M0 0 C3.89877888 1.72271625 5.52216358 3.03396756 7.44140625 6.9140625 C9.22577032 11.54808263 10.84032804 16.18570523 12.0625 21 C12.80913067 24.11657873 12.80913067 24.11657873 15.125 26.375 C17.49145744 29.68804042 17.57665885 31.85457252 17.390625 35.84765625 C16.66097567 39.86802408 14.40452169 41.94660873 11.25 44.3125 C7.08785447 45.58426669 2.82876922 45.59311434 -1.3125 44.25 C-4.39559804 41.96622367 -5.85519351 39.96015833 -6.43359375 36.125 C-6.43488281 35.09375 -6.43617188 34.0625 -6.4375 33 C-6.45683594 31.96875 -6.47617188 30.9375 -6.49609375 29.875 C-5.88742617 26.34760361 -4.56781874 25.37930824 -2 23 C-2.10980156 17.40012036 -4.11600147 12.22542987 -6 7 C-5.195625 6.401875 -4.39125 5.80375 -3.5625 5.1875 C-0.77672016 3.19052724 -0.77672016 3.19052724 0 0 Z " fill="#6684BA" transform="translate(160,124)"/>
<path d="M0 0 C3.3315266 0.71974061 5.60556471 2.59971888 8.38671875 4.515625 C12.24619007 4.37528059 15.38477373 3.5162184 19.07421875 2.390625 C23.87776734 1.12176311 23.87776734 1.12176311 26.38671875 2.515625 C27.51171875 5.015625 27.51171875 5.015625 28.38671875 7.515625 C29.04671875 7.845625 29.70671875 8.175625 30.38671875 8.515625 C30.38671875 9.175625 30.38671875 9.835625 30.38671875 10.515625 C23.84018145 14.54231525 18.32530266 16.96686412 10.70703125 18.01953125 C7.6367296 18.67597622 6.23376747 20.02612456 4.38671875 22.515625 C0.91193854 24.25301511 -2.82259261 24.11242892 -6.61328125 23.515625 C-10.81303817 20.20943338 -13.39774247 17.13216585 -14.11328125 11.765625 C-13.97036005 7.47798913 -12.54866353 4.87258485 -9.58984375 1.80859375 C-6.43429803 -0.2556071 -3.69110106 -0.242763 0 0 Z " fill="#6B8BC4" transform="translate(97.61328125,161.484375)"/>
<path d="M0 0 C3.14120071 2.21094654 4.68126831 3.90523509 5.5 7.71484375 C5.73574066 13.7302951 4.87039687 16.46212481 0.92578125 21.04296875 C1.01886662 24.52915756 1.01886662 24.52915756 1.92578125 28.04296875 C2.98805385 32.77491033 2.91559657 35.56588428 0.92578125 40.04296875 C-0.69921875 41.91796875 -0.69921875 41.91796875 -2.07421875 43.04296875 C-5.49015651 41.62947726 -7.0486788 40.11360113 -9.07421875 37.04296875 C-11.16863634 31.81985328 -12.52111979 26.70371525 -12.07421875 21.04296875 C-13.06421875 20.71296875 -14.05421875 20.38296875 -15.07421875 20.04296875 C-17.9077507 16.57976303 -18.60728844 13.51291466 -18.4296875 9.0390625 C-17.70898356 4.99203271 -15.49843146 2.16199302 -12.32421875 -0.33203125 C-7.89166936 -1.56329497 -4.19321423 -1.9347222 0 0 Z " fill="#5C76A7" transform="translate(86.07421875,92.95703125)"/>
<path d="M0 0 C2.632373 2.13096862 3.47016396 2.83300747 3.86328125 6.11328125 C3.98174205 9.82297484 3.89717841 12.51259858 2.375 15.9375 C-2.97538321 20.19348664 -9.51747439 22.125 -16.3125 22.125 C-19.7423348 21.00505394 -21.63868539 19.44034313 -24.375 17.125 C-25.385625 16.795 -26.39625 16.465 -27.4375 16.125 C-30.68606603 15.01910518 -32.15310962 13.68871967 -34.375 11.125 C-31.19073678 6.42557846 -27.97756295 4.5723295 -22.9375 2.375 C-22.28201172 2.07207031 -21.62652344 1.76914062 -20.95117188 1.45703125 C-14.07470222 -1.64669126 -6.9484729 -3.86026272 0 0 Z " fill="#6886BD" transform="translate(135.375,55.875)"/>
<path d="M0 0 C0.763125 0.78375 1.52625 1.5675 2.3125 2.375 C4.90891805 5.07257717 4.90891805 5.07257717 8 7 C8.33 6.34 8.66 5.68 9 5 C10.65 5 12.3 5 14 5 C14.07476562 5.56847656 14.14953125 6.13695312 14.2265625 6.72265625 C15.28215189 12.92165667 17.36469404 16.74212354 22 21 C22.99 21.66 23.98 22.32 25 23 C25 24.32 25 25.64 25 27 C23.68 27 22.36 27 21 27 C21 30.63 21 34.26 21 38 C19.35 38.66 17.7 39.32 16 40 C13.96664791 38.71810412 11.96918846 37.37843192 10 36 C6.26774656 35.20317197 6.26774656 35.20317197 3 35 C7 28.42857143 7 28.42857143 11 27 C11.13440778 24.57080135 11.13440778 24.57080135 10 22 C8.12994532 21.2987295 6.25250066 20.61127738 4.34375 20.0234375 C-0.1610876 18.05632508 -3.51629673 14.39499786 -7 11 C-6.195625 10.0925 -5.39125 9.185 -4.5625 8.25 C-2.56372959 5.86836652 -1.46394476 4.13162712 -1 1 C-0.67 0.67 -0.34 0.34 0 0 Z " fill="#192233" transform="translate(89,126)"/>
<path d="M0 0 C3.22224479 1.45912971 5.36170172 2.53710585 6.81640625 5.87109375 C7.98605484 10.1979756 8.84396245 14.62156036 7.3125 18.9375 C6.10941576 20.82806094 4.82779119 22.42527546 3.375 24.125 C0.78770618 26.63546917 0.78770618 26.63546917 1 29 C0.34 29 -0.32 29 -1 29 C-1.66 30.32 -2.32 31.64 -3 33 C-3.99 33 -4.98 33 -6 33 C-10.76880252 24.97701463 -15.31555555 16.64740738 -14 7 C-10.18181684 1.20689452 -6.95779305 -0.70757218 0 0 Z " fill="#6B8AC3" transform="translate(60,113)"/>
<path d="M0 0 C6.39946188 1.24433981 12.28563131 5.1223581 16.625 9.875 C17.305625 10.926875 17.305625 10.926875 18 12 C17.34 12 16.68 12 16 12 C16 12.66 16 13.32 16 14 C15.01 14.33 14.02 14.66 13 15 C11.33118065 18.42168849 11.33118065 18.42168849 10 22 C9.67 22.66 9.34 23.32 9 24 C8.34 24 7.68 24 7 24 C6.34 25.32 5.68 26.64 5 28 C1.98973476 26.21265501 -0.98284932 24.37713892 -3.9375 22.5 C-7.19970654 20.45106193 -10.51696723 18.65444057 -14 17 C-13.34 15.35 -12.68 13.7 -12 12 C-12.99 11.34 -13.98 10.68 -15 10 C-11.7 9.67 -8.4 9.34 -5 9 C-5 8.34 -5 7.68 -5 7 C-4.34 7 -3.68 7 -3 7 C-2.690625 6.21625 -2.38125 5.4325 -2.0625 4.625 C-1 2 -1 2 0 0 Z " fill="#3E5175" transform="translate(161,89)"/>
<path d="M0 0 C6.58762887 3.41580756 6.58762887 3.41580756 8.5 6.125 C9 8 9 8 8 10 C8.99 9.67 9.98 9.34 11 9 C12.13866026 11.41128054 13.02166924 13.30658436 12.9375 16 C11.53746439 18.98674264 9.40582389 20.75107767 7 23 C5.72521387 24.2668682 4.4544726 25.53781763 3.1875 26.8125 C2.125 27.875 1.0625 28.9375 0 30 C-0.66 29.01 -1.32 28.02 -2 27 C-3.2684375 25.4840625 -3.2684375 25.4840625 -4.5625 23.9375 C-7 21 -7 21 -8 19 C-8.66 18.67 -9.32 18.34 -10 18 C-10.99 17.34 -11.98 16.68 -13 16 C-13 15.34 -13 14.68 -13 14 C-13.99 13.67 -14.98 13.34 -16 13 C-15.38511719 12.54109375 -14.77023438 12.0821875 -14.13671875 11.609375 C-13.32847656 10.99578125 -12.52023438 10.3821875 -11.6875 9.75 C-10.88699219 9.14671875 -10.08648437 8.5434375 -9.26171875 7.921875 C-6.93920752 6.10478472 -6.93920752 6.10478472 -5.39453125 3.765625 C-4.93433594 3.18296875 -4.47414062 2.6003125 -4 2 C-3.01 2 -2.02 2 -1 2 C-0.67 1.34 -0.34 0.68 0 0 Z " fill="#3F5276" transform="translate(144,166)"/>
<path d="M0 0 C1.9434004 2.9151006 3.09231048 5.56492622 4.375 8.8125 C5.78535904 12.29642262 7.10969667 15.43282684 9.375 18.4375 C11 21 11 21 10.9375 23.4375 C8.79030406 29.30650223 6.17446328 34.63625171 3 40 C0.83203125 40.40625 0.83203125 40.40625 -2 40 C-4.01975125 37.85346145 -5.63759782 35.88704577 -7.3125 33.5 C-7.76689453 32.87996094 -8.22128906 32.25992188 -8.68945312 31.62109375 C-9.80744812 30.09120586 -10.90568532 28.54691473 -12 27 C-10.90073597 25.22611914 -9.79539498 23.45600316 -8.6875 21.6875 C-7.76517578 20.20830078 -7.76517578 20.20830078 -6.82421875 18.69921875 C-5.31989032 16.47332807 -3.87428561 14.87428561 -2 13 C-0.11819147 9.98412143 0.22882637 7.78009652 0.125 4.25 C0.09792969 3.05117187 0.09792969 3.05117187 0.0703125 1.828125 C0.04710938 1.22484375 0.02390625 0.6215625 0 0 Z " fill="#5871A0" transform="translate(67,121)"/>
<path d="M0 0 C1.921875 0.16796875 1.921875 0.16796875 4 1 C8.30452922 7.33722357 9.30295222 15.5764571 8 23 C5.78436838 25.97361086 4.26080415 27.36959793 1 29 C-3.17782921 29.48205722 -6.02462685 29.41000905 -9.4375 26.9375 C-12 24 -12 24 -12.8125 20.75 C-11.81269701 16.13552465 -9.82720323 13.77345483 -6.8203125 10.21875 C-4.44484769 7.32333366 -2.78009481 4.28632887 -1 1 C-0.67 0.67 -0.34 0.34 0 0 Z " fill="#7090CE" transform="translate(190,119)"/>
<path d="M0 0 C0.66 0.33 1.32 0.66 2 1 C1.01 2.485 1.01 2.485 0 4 C0.763125 4.12375 1.52625 4.2475 2.3125 4.375 C5 5 5 5 8 7 C8 7.66 8 8.32 8 9 C9.98 9 11.96 9 14 9 C14 9.33 14 9.66 14 10 C10.04 10.66 6.08 11.32 2 12 C2 12.66 2 13.32 2 14 C0.50390625 15.4375 0.50390625 15.4375 -1.4375 17 C-4.15188238 19.14525044 -4.15188238 19.14525044 -6 22 C-5.01 22 -4.02 22 -3 22 C-3 23.32 -3 24.64 -3 26 C-4.57914015 26.53341184 -6.16354387 27.05125763 -7.75 27.5625 C-8.63171875 27.85253906 -9.5134375 28.14257812 -10.421875 28.44140625 C-13.13635609 29.02954382 -14.39123074 28.73988204 -17 28 C-17.99 28.33 -18.98 28.66 -20 29 C-20 28.34 -20 27.68 -20 27 C-20.66 27 -21.32 27 -22 27 C-17.34556644 15.19618876 -11.9906108 5.51568097 0 0 Z " fill="#2E3D58" transform="translate(125,84)"/>
<path d="M0 0 C5.75 1.75 5.75 1.75 8 4 C11.75988563 3.70510701 15.07930646 2.97580481 18.6875 1.875 C23.49104859 0.60613811 23.49104859 0.60613811 26 2 C27.125 4.5 27.125 4.5 28 7 C28.66 7.33 29.32 7.66 30 8 C30 8.66 30 9.32 30 10 C18.16207951 17 18.16207951 17 12 17 C9.5625 16.0625 9.5625 16.0625 8 15 C8 14.34 8 13.68 8 13 C6.88625 11.88625 6.88625 11.88625 5.75 10.75 C2.95429167 7.95429167 1.08915326 5.32717001 -1 2 C-0.67 1.34 -0.34 0.68 0 0 Z " fill="#5A74A3" transform="translate(98,162)"/>
<path d="M0 0 C3 2 3 2 5 4 C4.52575143 8.26823714 2.04238597 10.17492731 -1 13 C-1.495 13.556875 -1.99 14.11375 -2.5 14.6875 C-4 16 -4 16 -6.625 17 C-7.40875 17.33 -8.1925 17.66 -9 18 C-9.33 18.99 -9.66 19.98 -10 21 C-10.99 21 -11.98 21 -13 21 C-15.87933809 17.58745116 -16.53199048 14.44276019 -16.35546875 9.99609375 C-15.63476481 5.94906396 -13.42421271 3.11902427 -10.25 0.625 C-6.80453104 -0.33207471 -3.51239368 -0.59815021 0 0 Z " fill="#6A89C1" transform="translate(84,92)"/>
<path d="M0 0 C8.9477099 2.87654352 15.45947846 6.1890693 22 13 C21.67 13.66 21.34 14.32 21 15 C20.67 14.67 20.34 14.34 20 14 C19.34 15.32 18.68 16.64 18 18 C17.67 17.67 17.34 17.34 17 17 C15.68 18.32 14.36 19.64 13 21 C11.02 19.68 9.04 18.36 7 17 C6.67 17.66 6.34 18.32 6 19 C4.35 19 2.7 19 1 19 C0.87882813 18.40832031 0.75765625 17.81664062 0.6328125 17.20703125 C-0.43456396 12.09943454 -0.43456396 12.09943454 -2.3125 7.25 C-2.539375 6.5075 -2.76625 5.765 -3 5 C-1.54296875 2.359375 -1.54296875 2.359375 0 0 Z " fill="#2D3C56" transform="translate(141,111)"/>
<path d="M0 0 C0.66 0.33 1.32 0.66 2 1 C0.515 2.485 0.515 2.485 -1 4 C0.81222534 6.0624994 0.81222534 6.0624994 3 8 C3.99 8 4.98 8 6 8 C6 8.66 6 9.32 6 10 C6.99 9.67 7.98 9.34 9 9 C9.99 10.485 9.99 10.485 11 12 C11.66 11.67 12.32 11.34 13 11 C13.33 11.66 13.66 12.32 14 13 C16.02463255 13.65213292 16.02463255 13.65213292 18 14 C18 14.66 18 15.32 18 16 C14.44540814 19.04679302 11.0117701 20.8604455 6.375 21.5 C2.68517867 20.9533598 0.16427349 19.95883597 -3 18 C-3.33 17.34 -3.66 16.68 -4 16 C-5.97888961 15.27306096 -7.97954558 14.60183749 -10 14 C-10 9.84439769 -7.7179548 8.15900671 -5 5.3125 C-4.52304688 4.80138672 -4.04609375 4.29027344 -3.5546875 3.76367188 C-2.37640085 2.50290516 -1.18904747 1.25062314 0 0 Z " fill="#4E6691" transform="translate(103,63)"/>
<path d="M0 0 C2.10701304 3.16051956 2.32095136 4.30756456 1.67578125 7.9609375 C-0.24116861 13.74502897 -4.01443317 18.58256157 -9 22 C-11.34058637 19.87219421 -12.70700306 17.88437779 -14 15 C-14.99 15 -15.98 15 -17 15 C-15.62845496 12.04590299 -14.01136276 9.55991624 -12 7 C-12.66 6.67 -13.32 6.34 -14 6 C-14 4.68 -14 3.36 -14 2 C-5.27819549 -1.7593985 -5.27819549 -1.7593985 0 0 Z " fill="#2E3D58" transform="translate(137,149)"/>
<path d="M0 0 C1.65 0.33 3.3 0.66 5 1 C5.33 2.65 5.66 4.3 6 6 C6.99 6.33 7.98 6.66 9 7 C9 7.66 9 8.32 9 9 C11.475 9.495 11.475 9.495 14 10 C14.33 9.34 14.66 8.68 15 8 C15.99 8.66 16.98 9.32 18 10 C18 12 18 12 15.6875 14.4375 C14.800625 15.283125 13.91375 16.12875 13 17 C12.484375 17.598125 11.96875 18.19625 11.4375 18.8125 C10 20 10 20 6 20 C6 19.01 6 18.02 6 17 C4.82630859 16.90912109 4.82630859 16.90912109 3.62890625 16.81640625 C2.61699219 16.73261719 1.60507813 16.64882812 0.5625 16.5625 C-0.95150391 16.44068359 -0.95150391 16.44068359 -2.49609375 16.31640625 C-5 16 -5 16 -6 15 C-6.66 15.66 -7.32 16.32 -8 17 C-8.39451163 13.54802327 -8.21819966 12.2982062 -6.125 9.4375 C-5.42375 8.633125 -4.7225 7.82875 -4 7 C-3.29114106 5.68861096 -2.60543548 4.36222983 -2 3 C-1.34 3 -0.68 3 0 3 C0 2.01 0 1.02 0 0 Z " fill="#1A2335" transform="translate(94,102)"/>
<path d="M0 0 C0.33 1.32 0.66 2.64 1 4 C0.34 4 -0.32 4 -1 4 C-1 4.99 -1 5.98 -1 7 C-0.34 7.33 0.32 7.66 1 8 C1.99 9.485 1.99 9.485 3 11 C3.66 10.34 4.32 9.68 5 9 C5.99 10.32 6.98 11.64 8 13 C8.33 12.34 8.66 11.68 9 11 C9.5775 11.474375 10.155 11.94875 10.75 12.4375 C12.92582084 13.9484867 14.42602448 14.54036151 17 15 C15.99088542 16.72526042 14.98177083 18.45052083 13.97265625 20.17578125 C12.86098753 22.13819555 12.86098753 22.13819555 12 25 C10.02 24.67 8.04 24.34 6 24 C6 24.99 6 25.98 6 27 C5.01 27.33 4.02 27.66 3 28 C2.95875 26.783125 2.9175 25.56625 2.875 24.3125 C2.46293219 20.8947611 1.76826271 19.28702803 -0.875 17.0625 C-3.84785727 14.90702083 -3.84785727 14.90702083 -7 14 C-6.44010697 10.00987629 -5.24330232 7.4744948 -2.9375 4.1875 C-2.38964844 3.39730469 -1.84179688 2.60710937 -1.27734375 1.79296875 C-0.64505859 0.90544922 -0.64505859 0.90544922 0 0 Z " fill="#2F3E5A" transform="translate(88,78)"/>
<path d="M0 0 C0.33 0 0.66 0 1 0 C1.03738281 0.67546875 1.07476562 1.3509375 1.11328125 2.046875 C1.21189453 3.38492188 1.21189453 3.38492188 1.3125 4.75 C1.39951172 6.07257813 1.39951172 6.07257813 1.48828125 7.421875 C2.0847834 10.42715303 2.83760085 11.83760085 5 14 C7.25157533 14.90043828 7.25157533 14.90043828 9.6875 15.25 C10.89986328 15.47429687 10.89986328 15.47429687 12.13671875 15.703125 C13.05904297 15.85007813 13.05904297 15.85007813 14 16 C13.1646875 16.7425 13.1646875 16.7425 12.3125 17.5 C9.34477734 20.70834882 7.22015159 24.25121945 5 28 C3 26 3 26 1 23 C0.34 23 -0.32 23 -1 23 C-1.061875 21.88625 -1.061875 21.88625 -1.125 20.75 C-2.34857383 16.90448224 -4.59346582 15.95694517 -8 14 C-8.66 14.66 -9.32 15.32 -10 16 C-10.66 15.67 -11.32 15.34 -12 15 C-11.34206835 13.32986582 -10.67276716 11.6642135 -10 10 C-9.75894531 9.38769531 -9.51789063 8.77539062 -9.26953125 8.14453125 C-7.22574386 3.11287193 -7.22574386 3.11287193 -5 2 C-5 2.99 -5 3.98 -5 5 C-3.68 5.33 -2.36 5.66 -1 6 C-0.67 4.02 -0.34 2.04 0 0 Z " fill="#2D3C56" transform="translate(153,153)"/>
<path d="M0 0 C2.4375 1 2.4375 1 4 2 C3.75 3.8125 3.75 3.8125 3 6 C1 7.5 1 7.5 -1 9 C-1.60061233 10.90178785 -1.60061233 10.90178785 -2 13 C-3.4375 15.75 -3.4375 15.75 -5 18 C-5.66 18 -6.32 18 -7 18 C-7.66 19.32 -8.32 20.64 -9 22 C-9.99 22 -10.98 22 -12 22 C-14.6135291 11.49921342 -14.6135291 11.49921342 -14 7 C-10.12879707 1.12645072 -6.99713168 -0.49102678 0 0 Z " fill="#7091CE" transform="translate(60,113)"/>
<path d="M0 0 C3.25 -0.25 3.25 -0.25 7 0 C9 1.8125 9 1.8125 11 4 C13.28623296 5.18784713 15.58897967 6.07268449 18 7 C16.60667426 10.36720387 15.0210714 11.9859524 12 14 C12.33 15.65 12.66 17.3 13 19 C11.68 18.67 10.36 18.34 9 18 C9 18.99 9 19.98 9 21 C7 22.6875 7 22.6875 5 24 C4.38125 23.360625 3.7625 22.72125 3.125 22.0625 C1.17402388 19.96116416 1.17402388 19.96116416 -1 19 C-1 17.35 -1 15.7 -1 14 C0.32 14 1.64 14 3 14 C3.08082094 12.04233719 3.13910778 10.08373272 3.1875 8.125 C3.23970703 6.48917969 3.23970703 6.48917969 3.29296875 4.8203125 C3.14794922 3.42425781 3.14794922 3.42425781 3 2 C2.01 1.34 1.02 0.68 0 0 Z " fill="#101623" transform="translate(132,94)"/>
<path d="M0 0 C0.763125 0.78375 1.52625 1.5675 2.3125 2.375 C4.90891805 5.07257717 4.90891805 5.07257717 8 7 C8.33 6.34 8.66 5.68 9 5 C10.32 5 11.64 5 13 5 C13.05447047 6.41623216 13.09300508 7.83308191 13.125 9.25 C13.14820312 10.03890625 13.17140625 10.8278125 13.1953125 11.640625 C12.97977172 14.24435761 12.36861765 15.78990013 11 18 C8.69435059 19.6696082 7.50917132 20.04427577 4.6640625 19.796875 C1.36535443 18.81016467 -0.31484901 17.2860375 -2.8125 14.9375 C-3.60269531 14.20402344 -4.39289063 13.47054687 -5.20703125 12.71484375 C-5.79871094 12.14894531 -6.39039062 11.58304688 -7 11 C-6.195625 10.0925 -5.39125 9.185 -4.5625 8.25 C-2.56372959 5.86836652 -1.46394476 4.13162712 -1 1 C-0.67 0.67 -0.34 0.34 0 0 Z " fill="#3E5175" transform="translate(89,126)"/>
<path d="M0 0 C3.31832766 0.98652984 4.76548627 1.68731503 6.875 4.5 C7.24625 5.325 7.6175 6.15 8 7 C7.67 7.66 7.34 8.32 7 9 C6.01 9.33 5.02 9.66 4 10 C2.64666384 11.95430935 2.64666384 11.95430935 1.5 14.3125 C-0.58598438 18.35743766 -2.77148722 21.77148722 -6 25 C-6.69748583 26.31747324 -7.36959957 27.64914193 -8 29 C-8.69848264 27.06643218 -9.38344814 25.12797702 -10.0625 23.1875 C-10.44535156 22.10855469 -10.82820312 21.02960938 -11.22265625 19.91796875 C-12 17 -12 17 -11 14 C-9.47705589 11.81905913 -7.80173918 9.97751862 -6 8 C-5.34 8 -4.68 8 -4 8 C-3.896875 7.236875 -3.79375 6.47375 -3.6875 5.6875 C-2.95635961 2.82940576 -2.23048087 1.84257115 0 0 Z " fill="#5D78A9" transform="translate(185,111)"/>
<path d="M0 0 C2.9488901 2.57082726 4.77877523 4.2773324 5.9375 8.0625 C6.00592742 11.27858871 5.49179844 12.23815694 4 15 C3.60941406 15.83917969 3.21882813 16.67835938 2.81640625 17.54296875 C2.40261719 18.41566406 1.98882812 19.28835937 1.5625 20.1875 C1.15128906 21.06792969 0.74007812 21.94835937 0.31640625 22.85546875 C-1 25 -1 25 -4 26 C-6.62938545 25.71973605 -7.68806735 25.34230504 -9.484375 23.37109375 C-9.90203125 22.73300781 -10.3196875 22.09492188 -10.75 21.4375 C-11.39195313 20.47650391 -11.39195313 20.47650391 -12.046875 19.49609375 C-12.36140625 19.00238281 -12.6759375 18.50867188 -13 18 C-12.40316406 17.9071875 -11.80632813 17.814375 -11.19140625 17.71875 C-7.09033308 16.37365648 -5.12936014 12.57875654 -3 9 C-1.77532708 6.04985855 -0.81463942 3.08705464 0 0 Z " fill="#455A81" transform="translate(72,135)"/>
<path d="M0 0 C5 2 5 2 10 4 C9.42655063 6.86724686 9.1385485 7.8614515 7 10 C9.97 10.495 9.97 10.495 13 11 C13 11.33 13 11.66 13 12 C12.11248047 12.00386719 12.11248047 12.00386719 11.20703125 12.0078125 C6.47380038 12.1764614 6.47380038 12.1764614 2.359375 14.26171875 C0.08718314 16.97876745 -1.41663202 19.83326404 -3 23 C-5.97 21.35 -8.94 19.7 -12 18 C-11.34 16.68 -10.68 15.36 -10 14 C-9.01 14 -8.02 14 -7 14 C-5.52463862 12.37694079 -5.52463862 12.37694079 -4.3125 10.25 C-3.65701172 9.20585937 -3.65701172 9.20585937 -2.98828125 8.140625 C-1.72055784 5.78768406 -1.72055784 5.78768406 -2 2 C-1.34 1.34 -0.68 0.68 0 0 Z " fill="#2D3C57" transform="translate(86,150)"/>
<path d="M0 0 C1.68873879 1.64429829 3.35305515 3.31384218 5 5 C6.0725 5.515625 7.145 6.03125 8.25 6.5625 C11 8 11 8 12.0625 9.875 C11.97073848 12.99489172 10.86235692 14.51685745 9 17 C6.3125 19.3125 6.3125 19.3125 4 21 C3.5875 20.071875 3.175 19.14375 2.75 18.1875 C1.04014879 15.07312814 -0.1611847 13.95780365 -3 12 C-3 11.34 -3 10.68 -3 10 C-3.66 9.67 -4.32 9.34 -5 9 C-5.99 8.34 -6.98 7.68 -8 7 C-8 6.34 -8 5.68 -8 5 C-8.99 4.67 -9.98 4.34 -11 4 C-4.5 0 -4.5 0 0 0 Z " fill="#4B628B" transform="translate(139,175)"/>
<path d="M0 0 C5.29779442 2.34088591 6.79242525 5.13128764 8.9375 10.5 C11.4741242 17.26433121 11.4741242 17.26433121 10 21 C9.34 19.35 8.68 17.7 8 16 C7.2575 16.78375 6.515 17.5675 5.75 18.375 C3.40578023 20.61266433 1.85675015 21.69370826 -1 23 C-1.19335938 22.34773438 -1.38671875 21.69546875 -1.5859375 21.0234375 C-2.98640448 16.3228602 -4.41208726 11.64159109 -6 7 C-5.195625 6.401875 -4.39125 5.80375 -3.5625 5.1875 C-0.77672016 3.19052724 -0.77672016 3.19052724 0 0 Z " fill="#516995" transform="translate(160,124)"/>
<path d="M0 0 C3.48539917 0.64544429 6.02819057 2.10134397 9 4 C8.01 4.33 7.02 4.66 6 5 C6 5.99 6 6.98 6 8 C4.625 9.6875 4.625 9.6875 3 11 C2.34 11 1.68 11 1 11 C0.38331926 12.85004223 -0.22308949 14.70358993 -0.8125 16.5625 C-2 19 -2 19 -3.80859375 20.26953125 C-6 21 -6 21 -8.140625 20.3203125 C-8.83671875 19.92585938 -9.5328125 19.53140625 -10.25 19.125 C-10.95640625 18.73570313 -11.6628125 18.34640625 -12.390625 17.9453125 C-12.92171875 17.63335937 -13.4528125 17.32140625 -14 17 C-13.34 15.35 -12.68 13.7 -12 12 C-12.99 11.34 -13.98 10.68 -15 10 C-11.7 9.67 -8.4 9.34 -5 9 C-5 8.34 -5 7.68 -5 7 C-4.34 7 -3.68 7 -3 7 C-2.690625 6.21625 -2.38125 5.4325 -2.0625 4.625 C-1 2 -1 2 0 0 Z " fill="#2D3C57" transform="translate(161,89)"/>
<path d="M0 0 C0.66 0.33 1.32 0.66 2 1 C1.01 2.485 1.01 2.485 0 4 C1.1446875 4.185625 1.1446875 4.185625 2.3125 4.375 C5 5 5 5 8 7 C8 7.66 8 8.32 8 9 C9.98 9 11.96 9 14 9 C14 9.33 14 9.66 14 10 C10.04 10.66 6.08 11.32 2 12 C2 12.66 2 13.32 2 14 C-1.76644988 15.82941851 -3.96922125 16.23162684 -8 15 C-8.33 14.67 -8.66 14.34 -9 14 C-9.99 13.67 -10.98 13.34 -12 13 C-11.78130073 9.17276285 -11.08530916 8.08143147 -8.25 5.375 C-5.6125423 3.37154655 -2.96867033 1.48433516 0 0 Z " fill="#3E5176" transform="translate(125,84)"/>
<path d="M0 0 C1.9375 0.0625 1.9375 0.0625 4 1 C5.25 4.0625 5.25 4.0625 6 7 C5.01 6.67 4.02 6.34 3 6 C3.061875 6.7425 3.12375 7.485 3.1875 8.25 C2.96306354 11.54173479 2.13559933 12.54801558 0 15 C-1.74346256 17.30137058 -3.39678353 19.5951753 -5 22 C-6.96752828 23.06246527 -8.96587579 24.07137808 -11 25 C-12 24 -12 24 -12.5 21 C-12.46154391 16.30835697 -9.73262297 13.66164335 -6.8203125 10.21875 C-4.44484769 7.32333366 -2.78009481 4.28632887 -1 1 C-0.67 0.67 -0.34 0.34 0 0 Z " fill="#6A89C2" transform="translate(190,119)"/>
<path d="M0 0 C1.6875 2.25 1.6875 2.25 3 5 C3.66474613 6.33429187 4.33105705 7.66780724 5 9 C3.73760288 9.86658615 2.46472499 10.71792059 1.1875 11.5625 C0.12595703 12.27599609 0.12595703 12.27599609 -0.95703125 13.00390625 C-3 14 -3 14 -6 13 C-6.33 11.35 -6.66 9.7 -7 8 C-8.32 8 -9.64 8 -11 8 C-11 7.34 -11 6.68 -11 6 C-13.31 5.67 -15.62 5.34 -18 5 C-17.67 4.34 -17.34 3.68 -17 3 C-14.67038557 2.64159778 -12.33634657 2.31151288 -10 2 C-9.13375 1.649375 -8.2675 1.29875 -7.375 0.9375 C-4.62229829 -0.14909278 -2.92338779 -0.5385188 0 0 Z " fill="#465B81" transform="translate(123,163)"/>
<path d="M0 0 C2.31 0.33 4.62 0.66 7 1 C6.01 1.495 6.01 1.495 5 2 C4.26924352 4.3140622 3.59861742 6.64828869 3 9 C2.34 9 1.68 9 1 9 C0.34 10.32 -0.32 11.64 -1 13 C-1.66 13 -2.32 13 -3 13 C-3 15.31 -3 17.62 -3 20 C-6 20 -6 20 -8.6875 17.5 C-9.450625 16.675 -10.21375 15.85 -11 15 C-10.566875 14.443125 -10.13375 13.88625 -9.6875 13.3125 C-7.94391934 10.99871116 -7.94391934 10.99871116 -6.4375 8.375 C-4.52930638 5.22233229 -3.53735199 4.17911733 0 3 C0 2.01 0 1.02 0 0 Z " fill="#364666" transform="translate(167,94)"/>
<path d="M0 0 C-0.33 1.32 -0.66 2.64 -1 4 C-0.14535156 3.98839844 0.70929688 3.97679687 1.58984375 3.96484375 C2.69457031 3.95582031 3.79929688 3.94679687 4.9375 3.9375 C6.03964844 3.92589844 7.14179688 3.91429687 8.27734375 3.90234375 C11 4 11 4 12 5 C12.66 4.34 13.32 3.68 14 3 C14.39169887 5.66355234 14.40564529 7.39224373 12.88671875 9.66796875 C11.63610683 11.1510888 10.32135486 12.57954352 9 14 C6.47459884 12.91768522 4.93352122 11.93144376 3 9.9375 C1.2034588 7.87349036 1.2034588 7.87349036 -1 7.5 C-3.81366419 6.79658395 -5.09410141 5.11010201 -7 3 C-4.49955934 -0.00052879 -4.2621484 0 0 0 Z " fill="#131A28" transform="translate(145,139)"/>
<path d="M0 0 C6.58762887 3.41580756 6.58762887 3.41580756 8.5 6.125 C9 8 9 8 8 10 C8.99 9.67 9.98 9.34 11 9 C13.09230769 13.43076923 13.09230769 13.43076923 12.625 16.3125 C12.315625 17.1478125 12.315625 17.1478125 12 18 C11.67 17.34 11.34 16.68 11 16 C9.0745356 14.8509288 9.0745356 14.8509288 7 15 C6.34 14.34 5.68 13.68 5 13 C4.34 12.67 3.68 12.34 3 12 C2.67 11.34 2.34 10.68 2 10 C1.34 10 0.68 10 0 10 C0 8.68 0 7.36 0 6 C-2.97 5.505 -2.97 5.505 -6 5 C-5.34 4.01 -4.68 3.02 -4 2 C-3.01 2 -2.02 2 -1 2 C-0.67 1.34 -0.34 0.68 0 0 Z " fill="#374868" transform="translate(144,166)"/>
<path d="M0 0 C5.03985731 0.44469329 7.37634988 2.71343362 11 6 C10.67 6.66 10.34 7.32 10 8 C9.67 7.67 9.34 7.34 9 7 C8.34 8.32 7.68 9.64 7 11 C6.67 10.67 6.34 10.34 6 10 C4.68 11.32 3.36 12.64 2 14 C-1.53586014 10.82679218 -3.58578031 8.83256305 -4 4 C-2.68 3.34 -1.36 2.68 0 2 C0 1.34 0 0.68 0 0 Z " fill="#3D4F73" transform="translate(152,118)"/>
<path d="M0 0 C0.99 0.66 1.98 1.32 3 2 C3.66 2 4.32 2 5 2 C5 2.66 5 3.32 5 4 C5.66 4 6.32 4 7 4 C6.63076923 10.4 6.63076923 10.4 3.4375 13.4375 C2.2309375 14.2109375 2.2309375 14.2109375 1 15 C-1.34058637 12.87219421 -2.70700306 10.88437779 -4 8 C-4.99 8 -5.98 8 -7 8 C-5.50902342 4.2047869 -3.24299151 2.38957269 0 0 Z " fill="#364766" transform="translate(127,156)"/>
<path d="M0 0 C2.8436234 3.2145308 3.74292216 5.7153693 4 10 C3.08720518 13.87937797 2.11439162 16.4518614 -1 19 C-4.82946843 17.54744301 -6.12050295 15.57104439 -8 12 C-7.505 11.54625 -7.01 11.0925 -6.5 10.625 C-4.77390663 9.12364481 -4.77390663 9.12364481 -5 7 C-4.34 7 -3.68 7 -3 7 C-1.79371992 4.66785852 -0.8345262 2.50357861 0 0 Z " fill="#455B81" transform="translate(85,117)"/>
<path d="M0 0 C1.9453125 -0.29296875 1.9453125 -0.29296875 4.125 -0.1875 C5.40375 -0.125625 6.6825 -0.06375 8 0 C8 0.99 8 1.98 8 3 C8.66 3.66 9.32 4.32 10 5 C14 9.70588235 14 9.70588235 14 12 C14.99 12.33 15.98 12.66 17 13 C17 13.66 17 14.32 17 15 C17.99 15.66 18.98 16.32 20 17 C19.38125 17.12375 18.7625 17.2475 18.125 17.375 C15.80879168 17.87197356 15.80879168 17.87197356 14 20 C10.57583541 17.71722361 10.854914 17.63338448 10 14 C9.03126968 12.64377755 8.02323436 11.31558703 7 10 C5.2966126 7.35593598 3.64584348 4.6801878 2 2 C0.68 2.33 -0.64 2.66 -2 3 C-1.34 2.01 -0.68 1.02 0 0 Z " fill="#6480B5" transform="translate(90,162)"/>
<path d="M0 0 C0.33 0.99 0.66 1.98 1 3 C0.01 3 -0.98 3 -2 3 C-1.938125 3.763125 -1.87625 4.52625 -1.8125 5.3125 C-2 8 -2 8 -3.375 9.625 C-3.91125 10.07875 -4.4475 10.5325 -5 11 C-5.99 12.485 -5.99 12.485 -7 14 C-7.66 14 -8.32 14 -9 14 C-9 14.66 -9 15.32 -9 16 C-9.66 16 -10.32 16 -11 16 C-12.60407345 7.02067582 -12.60407345 7.02067582 -10.1875 2.9375 C-6.68485619 -0.16484166 -4.60480351 -0.10010442 0 0 Z " fill="#779ADD" transform="translate(58,114)"/>
<path d="M0 0 C1.75 1.25 1.75 1.25 2.75 3.25 C1.1 3.58 -0.55 3.91 -2.25 4.25 C-2.58 5.57 -2.91 6.89 -3.25 8.25 C-3.91 8.25 -4.57 8.25 -5.25 8.25 C-5.25 8.91 -5.25 9.57 -5.25 10.25 C-6.40629692 11.40629692 -7.56936822 12.55606121 -8.75 13.6875 C-10.46591626 15.38313447 -10.46591626 15.38313447 -12.25 18.25 C-12.91 18.25 -13.57 18.25 -14.25 18.25 C-14.875 15.375 -14.875 15.375 -15.25 12.25 C-14.59 11.59 -13.93 10.93 -13.25 10.25 C-12.755 9.38375 -12.26 8.5175 -11.75 7.625 C-11.255 6.84125 -10.76 6.0575 -10.25 5.25 C-9.59 5.25 -8.93 5.25 -8.25 5.25 C-8.188125 4.63125 -8.12625 4.0125 -8.0625 3.375 C-7.25 1.25 -7.25 1.25 -4.9375 -0.125 C-2.25 -0.75 -2.25 -0.75 0 0 Z " fill="#556D9B" transform="translate(186.25,108.75)"/>
<path d="M0 0 C3.1875 0.875 3.1875 0.875 6 2 C4.60667426 5.36720387 3.0210714 6.9859524 0 9 C0.33 10.65 0.66 12.3 1 14 C-0.32 13.67 -1.64 13.34 -3 13 C-3 13.99 -3 14.98 -3 16 C-5 17.6875 -5 17.6875 -7 19 C-7.99 18.01 -8.98 17.02 -10 16 C-8.9284589 13.77449157 -7.79587609 11.66829864 -6.5 9.5625 C-4.93114418 7.05135512 -4.93114418 7.05135512 -4 4.3125 C-3 2 -3 2 0 0 Z " fill="#1A2335" transform="translate(144,99)"/>
<path d="M0 0 C5.53846154 3.07692308 5.53846154 3.07692308 7 6 C7.04022391 8.3329866 7.04320247 10.66706666 7 13 C1.942969 11.70634091 -0.40492706 9.69223708 -4 6 C-4.99 6 -5.98 6 -7 6 C-8.6875 4 -8.6875 4 -10 2 C-6.24543433 -0.50304378 -4.45254066 -0.45280074 0 0 Z " fill="#779ADE" transform="translate(132,54)"/>
<path d="M0 0 C5.75 1.625 5.75 1.625 8 5 C8.99 4.67 9.98 4.34 11 4 C11 4.66 11 5.32 11 6 C11.66 6 12.32 6 13 6 C13 6.66 13 7.32 13 8 C13.598125 7.79375 14.19625 7.5875 14.8125 7.375 C17 7 17 7 20 9 C17.875 11.125 17.875 11.125 15 13 C11.875 12.3125 11.875 12.3125 9 11 C8.01 10.67 7.02 10.34 6 10 C5.67 9.34 5.34 8.68 5 8 C4.01 8.66 3.02 9.32 2 10 C-1.07692308 5.69230769 -1.07692308 5.69230769 -0.6875 2.1875 C-0.460625 1.465625 -0.23375 0.74375 0 0 Z " fill="#38496A" transform="translate(88,80)"/>
<path d="M0 0 C0.99 0 1.98 0 3 0 C3.66 1.98 4.32 3.96 5 6 C4.08927734 6.11408203 4.08927734 6.11408203 3.16015625 6.23046875 C0.23617536 7.27210389 -0.20308414 8.57123568 -1.5625 11.3125 C-3.61468681 15.38323121 -5.76533543 18.76533543 -9 22 C-9.66 23.32 -10.32 24.64 -11 26 C-11.66 23.03 -12.32 20.06 -13 17 C-12.01 16.67 -11.02 16.34 -10 16 C-9.67 15.34 -9.34 14.68 -9 14 C-8.071875 12.8553125 -8.071875 12.8553125 -7.125 11.6875 C-4.23486722 8.03233207 -2.01779252 4.19079985 0 0 Z " fill="#627EB1" transform="translate(188,114)"/>
<path d="M0 0 C2.94180214 2.02882906 4.97117094 4.05819786 7 7 C7.66 6.34 8.32 5.68 9 5 C10.32 6.32 11.64 7.64 13 9 C13.99 8.34 14.98 7.68 16 7 C14.84826645 9.46800047 13.95216435 11.04783565 12 13 C10.68 13 9.36 13 8 13 C8 12.01 8 11.02 8 10 C7.21753906 9.93941406 6.43507813 9.87882812 5.62890625 9.81640625 C4.61699219 9.73261719 3.60507813 9.64882812 2.5625 9.5625 C1.04849609 9.44068359 1.04849609 9.44068359 -0.49609375 9.31640625 C-3 9 -3 9 -4 8 C-4.66 8.66 -5.32 9.32 -6 10 C-6.375 7.8125 -6.375 7.8125 -6 5 C-4.16038352 3.00977164 -2.20813852 1.61010101 0 0 Z " fill="#131927" transform="translate(92,109)"/>
<path d="M0 0 C1.65 1.65 3.3 3.3 5 5 C4.67 5.61875 4.34 6.2375 4 6.875 C2.85806765 8.91018344 2.85806765 8.91018344 3 11 C1.68 11.33 0.36 11.66 -1 12 C-1 12.99 -1 13.98 -1 15 C-1.66 15 -2.32 15 -3 15 C-2.67 15.99 -2.34 16.98 -2 18 C-5.78187881 19.83691257 -7.94568308 20.15837626 -12 19 C-11.401875 18.79375 -10.80375 18.5875 -10.1875 18.375 C-5.52461887 15.44404615 -4.08507753 8.89539941 -2 4 C-1.34711373 2.65986503 -0.68774405 1.32258472 0 0 Z " fill="#3E5074" transform="translate(78,143)"/>
<path d="M0 0 C0.99 0 1.98 0 3 0 C3.30273903 5.44930258 1.8300976 8.08263368 -1.625 12.125 C-4.21229382 14.63546917 -4.21229382 14.63546917 -4 17 C-4.66 17 -5.32 17 -6 17 C-6.66 18.32 -7.32 19.64 -8 21 C-8.99 21 -9.98 21 -11 21 C-11.66 19.68 -12.32 18.36 -13 17 C-11.47005208 15.76302083 -9.94010417 14.52604167 -8.41015625 13.2890625 C-6.86733563 12.0333609 -6.86733563 12.0333609 -6 10 C-5.34 10 -4.68 10 -4 10 C-4.33 9.01 -4.66 8.02 -5 7 C-4.54625 6.5875 -4.0925 6.175 -3.625 5.75 C-1.94049626 3.93591905 -1.00734029 2.24714373 0 0 Z " fill="#6380B4" transform="translate(65,125)"/>
<path d="M0 0 C0.33 0 0.66 0 1 0 C1.25 6.625 1.25 6.625 -1 10 C-1.66 10 -2.32 10 -3 10 C-3.33 10.99 -3.66 11.98 -4 13 C-4.804375 13.28875 -5.60875 13.5775 -6.4375 13.875 C-9.23928441 14.77944219 -9.23928441 14.77944219 -10.3125 17.625 C-10.539375 18.40875 -10.76625 19.1925 -11 20 C-11.66 20 -12.32 20 -13 20 C-13 20.99 -13 21.98 -13 23 C-13.66 23 -14.32 23 -15 23 C-15 21.02 -15 19.04 -15 17 C-15.66 16.67 -16.32 16.34 -17 16 C-16.46890625 15.61328125 -15.9378125 15.2265625 -15.390625 14.828125 C-12.29457115 12.54563275 -9.34965079 10.34965079 -6.625 7.625 C-6.08875 7.08875 -5.5525 6.5525 -5 6 C-4.34 6 -3.68 6 -3 6 C-2.690625 5.38125 -2.38125 4.7625 -2.0625 4.125 C-1.375 2.75 -0.6875 1.375 0 0 Z " fill="#617EB1" transform="translate(89,97)"/>
<path d="M0 0 C0.433125 0.474375 0.86625 0.94875 1.3125 1.4375 C3.02309613 3.23686957 3.02309613 3.23686957 6 4 C6 4.66 6 5.32 6 6 C6.5775 6.268125 7.155 6.53625 7.75 6.8125 C10.92355532 8.48743197 13.46644031 10.46644031 16 13 C12.39427296 14.20190901 9.7897565 14.32670315 6 14 C3.24670979 12.20437595 1.47372539 10.94745078 0 8 C-0.13415472 5.3276379 -0.04318541 2.67749512 0 0 Z " fill="#799CE0" transform="translate(106,193)"/>
<path d="M0 0 C3 2 3 2 3.6875 4.625 C3.790625 5.40875 3.89375 6.1925 4 7 C3.34 7 2.68 7 2 7 C1.71125 7.763125 1.4225 8.52625 1.125 9.3125 C0 12 0 12 -2 15 C-2.33 15.86625 -2.66 16.7325 -3 17.625 C-4 20 -4 20 -6 21 C-6.99 21.66 -7.98 22.32 -9 23 C-10.32 21.35 -11.64 19.7 -13 18 C-12.40316406 17.9071875 -11.80632813 17.814375 -11.19140625 17.71875 C-7.09033308 16.37365648 -5.12936014 12.57875654 -3 9 C-1.77532708 6.04985855 -0.81463942 3.08705464 0 0 Z " fill="#4D658F" transform="translate(72,135)"/>
<path d="M0 0 C0.66 0.66 1.32 1.32 2 2 C0.21229099 4.06997885 -0.95424891 4.98326179 -3.5625 5.9375 C-6.14871695 6.78929161 -6.14871695 6.78929161 -7.3125 9.125 C-7.539375 9.74375 -7.76625 10.3625 -8 11 C-8.66 11 -9.32 11 -10 11 C-10.33 11.99 -10.66 12.98 -11 14 C-11.33 14 -11.66 14 -12 14 C-12.47138774 9.19184502 -12.70477383 6.04648236 -9.9375 1.9375 C-6.31310142 -0.45306076 -4.26372358 -0.5631333 0 0 Z " fill="#7293D1" transform="translate(81,93)"/>
<path d="M0 0 C1.32 0 2.64 0 4 0 C4.05447047 1.41623216 4.09300508 2.83308191 4.125 4.25 C4.14820312 5.03890625 4.17140625 5.8278125 4.1953125 6.640625 C3.97977172 9.24435761 3.36861765 10.78990013 2 13 C-0.54144059 14.84035353 -1.60897098 15.05332214 -4.75 14.625 C-5.86375 14.315625 -5.86375 14.315625 -7 14 C-6.505 13.05125 -6.01 12.1025 -5.5 11.125 C-3.85575631 8.27721834 -3.85575631 8.27721834 -4 6 C-3.34 5.34 -2.68 4.68 -2 4 C-1.30251417 2.68252676 -0.63040043 1.35085807 0 0 Z " fill="#2D3D57" transform="translate(98,131)"/>
<path d="M0 0 C0.99 0.33 1.98 0.66 3 1 C3 2.32 3 3.64 3 5 C1.68 5 0.36 5 -1 5 C-1 8.63 -1 12.26 -1 16 C-2.65 16.66 -4.3 17.32 -6 18 C-6.66 17.01 -7.32 16.02 -8 15 C-7.67 14.34 -7.34 13.68 -7 13 C-7.3403125 12.13375 -7.3403125 12.13375 -7.6875 11.25 C-8 9 -8 9 -6.375 5.75 C-4 3 -4 3 -1.25 2.625 C-0.13625 2.810625 -0.13625 2.810625 1 3 C0.67 2.01 0.34 1.02 0 0 Z " fill="#101622" transform="translate(111,148)"/>
<path d="M0 0 C0.66 0.33 1.32 0.66 2 1 C2.77681874 9.89025894 2.77681874 9.89025894 -0.1875 14.125 C-3.18309666 16.12206444 -4.48911206 16.50155542 -8 16 C-7.34 15.01 -6.68 14.02 -6 13 C-6 11.68 -6 10.36 -6 9 C-4.6875 6.640625 -4.6875 6.640625 -3 4.25 C-2.443125 3.45078125 -1.88625 2.6515625 -1.3125 1.828125 C-0.879375 1.22484375 -0.44625 0.6215625 0 0 Z " fill="#799DE1" transform="translate(196,131)"/>
<path d="M0 0 C5.875 3.625 5.875 3.625 7 7 C6.01 7.33 5.02 7.66 4 8 C1.94729537 9.84188612 1.94729537 9.84188612 1 12 C0.34 12 -0.32 12 -1 12 C-1.66 13.32 -2.32 14.64 -3 16 C-3.99 13.03 -4.98 10.06 -6 7 C-5.195625 6.401875 -4.39125 5.80375 -3.5625 5.1875 C-0.77672016 3.19052724 -0.77672016 3.19052724 0 0 Z " fill="#465C83" transform="translate(160,124)"/>
<path d="M0 0 C3.99870861 1.92530414 7.84296719 3.84296719 11 7 C6.5 11 6.5 11 2 11 C1.67 10.34 1.34 9.68 1 9 C-1.01669827 7.86649466 -1.01669827 7.86649466 -3 7 C-1.125 1.125 -1.125 1.125 0 0 Z " fill="#354666" transform="translate(112,94)"/>
<path d="M0 0 C4.95 1.98 4.95 1.98 10 4 C8 6 8 6 6 6.9375 C3.67868591 7.96786859 3.67868591 7.96786859 2 11 C1.75944532 13.05709596 1.75944532 13.05709596 1.875 15.1875 C1.91625 16.445625 1.9575 17.70375 2 19 C1.67 19 1.34 19 1 19 C0.87882813 18.40832031 0.75765625 17.81664062 0.6328125 17.20703125 C-0.43456396 12.09943454 -0.43456396 12.09943454 -2.3125 7.25 C-3 5 -3 5 -1.625 2.1875 C-1.08875 1.465625 -0.5525 0.74375 0 0 Z " fill="#263248" transform="translate(141,111)"/>
<path d="M0 0 C4 1 4 1 6 4 C6.66 3.67 7.32 3.34 8 3 C8.33 3.66 8.66 4.32 9 5 C9.66 5 10.32 5 11 5 C10.67 6.65 10.34 8.3 10 10 C7.03 9.505 7.03 9.505 4 9 C4 9.99 4 10.98 4 12 C3.01 12.33 2.02 12.66 1 13 C0.67 8.71 0.34 4.42 0 0 Z " fill="#28344C" transform="translate(90,93)"/>
<path d="M0 0 C1.62463842 -0.05395478 3.24978541 -0.09277195 4.875 -0.125 C5.77992187 -0.14820313 6.68484375 -0.17140625 7.6171875 -0.1953125 C10 0 10 0 12 2 C12.66 1.67 13.32 1.34 14 1 C14 1.99 14 2.98 14 4 C14.66 4 15.32 4 16 4 C17.625 6 17.625 6 19 8 C17.1875 9.5625 17.1875 9.5625 15 11 C14.01 10.67 13.02 10.34 12 10 C11.67 8.35 11.34 6.7 11 5 C9.68 5 8.36 5 7 5 C7 4.34 7 3.68 7 3 C4.69 2.67 2.38 2.34 0 2 C0 1.34 0 0.68 0 0 Z " fill="#4D648E" transform="translate(105,166)"/>
<path d="M0 0 C3.875 1.75 3.875 1.75 5 4 C8.02934491 4.65772428 8.02934491 4.65772428 11 5 C11.33 5.99 11.66 6.98 12 8 C8.15896814 9.48403504 5.93891322 10.22242134 2 9 C1.01 9.33 0.02 9.66 -1 10 C-1 9.34 -1 8.68 -1 8 C-1.66 8 -2.32 8 -3 8 C-2.690625 7.236875 -2.38125 6.47375 -2.0625 5.6875 C-1.32106407 3.81210323 -0.63771783 1.91315348 0 0 Z " fill="#253147" transform="translate(106,103)"/>
<path d="M0 0 C1.98 0.66 3.96 1.32 6 2 C5.42655063 4.86724686 5.1385485 5.8614515 3 8 C5.97 8.495 5.97 8.495 9 9 C9 9.33 9 9.66 9 10 C7.58366664 10.16947579 6.16691467 10.33545507 4.75 10.5 C3.96109375 10.5928125 3.1721875 10.685625 2.359375 10.78125 C0 11 0 11 -4 11 C-4.33 10.34 -4.66 9.68 -5 9 C-4.34 9 -3.68 9 -3 9 C-2.87625 8.38125 -2.7525 7.7625 -2.625 7.125 C-2 5 -2 5 0 3 C0 2.01 0 1.02 0 0 Z " fill="#28344C" transform="translate(90,152)"/>
<path d="M0 0 C0.66 0.33 1.32 0.66 2 1 C1.01 2.485 1.01 2.485 0 4 C1.1446875 4.185625 1.1446875 4.185625 2.3125 4.375 C5 5 5 5 8 7 C8 7.66 8 8.32 8 9 C9.98 9 11.96 9 14 9 C14 9.33 14 9.66 14 10 C9.545 10.495 9.545 10.495 5 11 C5 10.34 5 9.68 5 9 C4.278125 9.061875 3.55625 9.12375 2.8125 9.1875 C-0.5841334 8.96105777 -2.31996843 8.06745292 -5 6 C-5 5.01 -5 4.02 -5 3 C-2.625 1.25 -2.625 1.25 0 0 Z " fill="#4E6691" transform="translate(125,84)"/>
<path d="M0 0 C-0.474375 0.886875 -0.94875 1.77375 -1.4375 2.6875 C-2.79737149 5.57042756 -3.54060386 7.87610623 -4 11 C-6.31 10.01 -8.62 9.02 -11 8 C-10.34 6.35 -9.68 4.7 -9 3 C-9.99 2.34 -10.98 1.68 -12 1 C-10.37681021 0.63762737 -8.7513642 0.28534843 -7.125 -0.0625 C-6.22007812 -0.25972656 -5.31515625 -0.45695312 -4.3828125 -0.66015625 C-2 -1 -2 -1 0 0 Z " fill="#28354D" transform="translate(158,98)"/>
<path d="M0 0 C0.268125 0.598125 0.53625 1.19625 0.8125 1.8125 C1.8893979 4.04327908 1.8893979 4.04327908 3.625 5.625 C4.07875 6.07875 4.5325 6.5325 5 7 C5 7.66 5 8.32 5 9 C5.639375 9.268125 6.27875 9.53625 6.9375 9.8125 C9 11 9 11 10 14 C6.75 14.3125 6.75 14.3125 3 14 C-0.31659383 11.19365137 -0.94471142 9.65240519 -1.3125 5.3125 C-1 2 -1 2 0 0 Z " fill="#7293D2" transform="translate(86,170)"/>
<path d="M0 0 C0.33 0 0.66 0 1 0 C1.3902803 2.58185431 1.76263148 5.16420983 2.125 7.75 C2.23714844 8.47960937 2.34929687 9.20921875 2.46484375 9.9609375 C3.00206512 13.9005609 3.3715758 16.66222665 1 20 C0.4225 19.54625 -0.155 19.0925 -0.75 18.625 C-2.7800333 17.15886484 -4.73539843 16.05142216 -7 15 C-5 13 -5 13 -2.9375 11.4375 C-0.12963619 7.90502617 -0.18819984 4.40387622 0 0 Z " fill="#232F44" transform="translate(102,131)"/>
<path d="M0 0 C1.65 1.65 3.3 3.3 5 5 C4.67 5.66 4.34 6.32 4 7 C3.34 7 2.68 7 2 7 C2.33 7.99 2.66 8.98 3 10 C1.5625 12.1875 1.5625 12.1875 0 14 C-4.875 12.25 -4.875 12.25 -6 10 C-5.195625 9.278125 -4.39125 8.55625 -3.5625 7.8125 C-0.97707928 4.97484311 -0.31957187 3.72833853 0 0 Z " fill="#364767" transform="translate(92,130)"/>
<path d="M0 0 C-0.47348414 4.1666604 -1.04696841 6.92884715 -4 10 C-4.66 10 -5.32 10 -6 10 C-5.67 10.99 -5.34 11.98 -5 13 C-6.98 13.99 -6.98 13.99 -9 15 C-9.33 13.35 -9.66 11.7 -10 10 C-9.34 10 -8.68 10 -8 10 C-8.33 9.01 -8.66 8.02 -9 7 C-7.66666667 5.66666667 -6.33333333 4.33333333 -5 3 C-4.46375 2.4225 -3.9275 1.845 -3.375 1.25 C-2 0 -2 0 0 0 Z " fill="#556E9B" transform="translate(86,114)"/>
<path d="M0 0 C2.35095039 1.5428112 3.62656076 2.85476663 5 5.3125 C4.8125 7.5 4.8125 7.5 4 9.3125 C3.01 9.8075 3.01 9.8075 2 10.3125 C-0.34058637 8.18469421 -1.70700306 6.19687779 -3 3.3125 C-3.99 3.3125 -4.98 3.3125 -6 3.3125 C-5.67 2.3225 -5.34 1.3325 -5 0.3125 C-2 -0.6875 -2 -0.6875 0 0 Z " fill="#3D5074" transform="translate(126,160.6875)"/>
<path d="M0 0 C4.75 0.75 4.75 0.75 7 3 C6.21625 3.763125 5.4325 4.52625 4.625 5.3125 C1.92742283 7.90891805 1.92742283 7.90891805 0 11 C-0.99 10.67 -1.98 10.34 -3 10 C-3.33 8.02 -3.66 6.04 -4 4 C-2.68 3.34 -1.36 2.68 0 2 C0 1.34 0 0.68 0 0 Z " fill="#354666" transform="translate(152,118)"/>
<path d="M0 0 C2.1519437 3.22791555 2.20086443 4.28400809 2 8 C-0.96175123 7.38722388 -2.38058783 6.74627478 -5 5 C-4.67 4.34 -4.34 3.68 -4 3 C-5.98 3 -7.96 3 -10 3 C-10 2.34 -10 1.68 -10 1 C-6.43904118 -1.32831923 -4.04274788 -1.14251571 0 0 Z " fill="#263249" transform="translate(137,149)"/>
<path d="M0 0 C0.33 0.66 0.66 1.32 1 2 C3.11327425 2.90725434 3.11327425 2.90725434 5.5625 3.625 C6.38878906 3.88539062 7.21507813 4.14578125 8.06640625 4.4140625 C9.02353516 4.70410156 9.02353516 4.70410156 10 5 C10 5.99 10 6.98 10 8 C8.68 8.33 7.36 8.66 6 9 C6 8.34 6 7.68 6 7 C5.01 7.33 4.02 7.66 3 8 C0.875 7.6875 0.875 7.6875 -1 7 C-1.33 6.34 -1.66 5.68 -2 5 C-2.99 4.34 -3.98 3.68 -5 3 C-2.25 0 -2.25 0 0 0 Z " fill="#465C82" transform="translate(120,88)"/>
<path d="M0 0 C0.33 0 0.66 0 1 0 C1.10824843 1.6026782 1.18570645 3.20745748 1.25 4.8125 C1.29640625 5.70582031 1.3428125 6.59914063 1.390625 7.51953125 C1 10 1 10 -0.953125 11.63671875 C-1.62859375 12.08660156 -2.3040625 12.53648437 -3 13 C-3.33 13.99 -3.66 14.98 -4 16 C-4.99 15.67 -5.98 15.34 -7 15 C-7.33 14.01 -7.66 13.02 -8 12 C-7.505 11.54625 -7.01 11.0925 -6.5 10.625 C-4.77390663 9.12364481 -4.77390663 9.12364481 -5 7 C-4.34 7 -3.68 7 -3 7 C-1.79371992 4.66785852 -0.8345262 2.50357861 0 0 Z " fill="#4D648E" transform="translate(85,117)"/>
<path d="M0 0 C0.99 0 1.98 0 3 0 C1.10112003 7.05298276 -0.05027202 10.61598991 -6 15 C-5.21910455 11.09552275 -3.69382187 7.59090237 -2 4 C-1.34 3.67 -0.68 3.34 0 3 C0 2.01 0 1.02 0 0 Z " fill="#151C2B" transform="translate(139,99)"/>
<path d="M0 0 C0.33 0 0.66 0 1 0 C1.05422947 1.4370809 1.09289723 2.87475462 1.125 4.3125 C1.14820313 5.11300781 1.17140625 5.91351563 1.1953125 6.73828125 C1 9 1 9 -1 12 C-1.99 11.67 -2.98 11.34 -4 11 C-4 9.68 -4 8.36 -4 7 C-3.34 6.67 -2.68 6.34 -2 6 C-1.27306096 4.02111039 -0.60183749 2.02045442 0 0 Z " fill="#6F90CD" transform="translate(174,155)"/>
<path d="M0 0 C2.97 0.33 5.94 0.66 9 1 C8.401875 1.5775 7.80375 2.155 7.1875 2.75 C5.2517316 4.74107607 3.61090717 6.74472997 2 9 C1.855625 7.88625 1.71125 6.7725 1.5625 5.625 C1.21627965 2.17857953 1.21627965 2.17857953 0 0 Z " fill="#26334A" transform="translate(158,168)"/>
<path d="M0 0 C0.66 0.99 1.32 1.98 2 3 C-1.625 8.75 -1.625 8.75 -5 11 C-5.33 10.01 -5.66 9.02 -6 8 C-4.78515625 5.95703125 -4.78515625 5.95703125 -3.0625 3.8125 C-2.49660156 3.09707031 -1.93070312 2.38164062 -1.34765625 1.64453125 C-0.90292969 1.10183594 -0.45820312 0.55914062 0 0 Z " fill="#324361" transform="translate(83,154)"/>
<path d="M0 0 C0.66 0.33 1.32 0.66 2 1 C1.06398754 2.41764994 0.1261208 3.83407568 -0.8125 5.25 C-1.33457031 6.03890625 -1.85664062 6.8278125 -2.39453125 7.640625 C-3.87134122 9.81092481 -5.40689873 11.91413768 -7 14 C-6.44010697 10.00987629 -5.24330232 7.4744948 -2.9375 4.1875 C-2.38964844 3.39730469 -1.84179688 2.60710937 -1.27734375 1.79296875 C-0.64505859 0.90544922 -0.64505859 0.90544922 0 0 Z " fill="#536B98" transform="translate(69,141)"/>
<path d="M0 0 C1.0625 1.875 1.0625 1.875 2 4 C1.67 4.66 1.34 5.32 1 6 C0.34 6 -0.32 6 -1 6 C-1.33 6.99 -1.66 7.98 -2 9 C-2.66 8.01 -3.32 7.02 -4 6 C-2.68 4.02 -1.36 2.04 0 0 Z " fill="#151C2B" transform="translate(107,151)"/>
<path d="M0 0 C0 3 0 3 -1.25 4.6875 C-3 6 -3 6 -7 6 C-6.67 4.68 -6.34 3.36 -6 2 C-5.01 2.33 -4.02 2.66 -3 3 C-2.01 2.01 -1.02 1.02 0 0 Z " fill="#0E131F" transform="translate(107,116)"/>
<path d="M0 0 C0.99 0.99 1.98 1.98 3 3 C1.71034824 4.37562854 0.37310707 5.70766393 -1 7 C-1.66 7 -2.32 7 -3 7 C-1.125 1.125 -1.125 1.125 0 0 Z " fill="#202B3F" transform="translate(141,111)"/>
<path d="M0 0 C0.66 0.66 1.32 1.32 2 2 C1.01 3.485 1.01 3.485 0 5 C-0.66 5 -1.32 5 -2 5 C-2.66 6.32 -3.32 7.64 -4 9 C-4.33 8.01 -4.66 7.02 -5 6 C-3.6875 3.8125 -3.6875 3.8125 -2 2 C-1.34 2 -0.68 2 0 2 C0 1.34 0 0.68 0 0 Z " fill="#43577D" transform="translate(170,108)"/>
<path d="M0 0 C1.32 0.33 2.64 0.66 4 1 C3.01 1.33 2.02 1.66 1 2 C-0.20882096 4.00016466 -0.20882096 4.00016466 -1 6 C-1.99 5.67 -2.98 5.34 -4 5 C-2.68 3.35 -1.36 1.7 0 0 Z " fill="#202A3E" transform="translate(96,155)"/>
<path d="M0 0 C1.32 0.66 2.64 1.32 4 2 C4 2.66 4 3.32 4 4 C4.66 4.33 5.32 4.66 6 5 C2.98968256 5.93423645 2.13349732 6.04449911 -1 5 C-0.67 3.35 -0.34 1.7 0 0 Z " fill="#27344C" transform="translate(82,87)"/>
<path d="M0 0 C0 0.66 0 1.32 0 2 C-2.3125 2.625 -2.3125 2.625 -5 3 C-5.99 2.34 -6.98 1.68 -8 1 C-3.375 -1.125 -3.375 -1.125 0 0 Z " fill="#546D9A" transform="translate(121,77)"/>
</svg>
